<?xml version="1.0" encoding="utf-8"?>
<!-- Generator: Adobe Illustrator 18.1.1, SVG Export Plug-In . SVG Version: 6.00 Build 0)  -->
<svg version="1.1" id="Calque_1" xmlns="http://www.w3.org/2000/svg" xmlns:xlink="http://www.w3.org/1999/xlink" x="0px" y="0px"
	 viewBox="0 0 114.6 118.6" enable-background="new 0 0 114.6 118.6" xml:space="preserve">
<g>
	<polygon fill="#004B96" points="11,52.1 10.4,52 10.8,49.5 11.5,49.6 11,52.1 	"/>
	<path fill="#004B96" d="M9.7,42l-0.5,1.6l2.5,0.8l0.5-1.6c0.3-0.8,0-1.5-0.8-1.7C10.5,40.8,9.9,41.2,9.7,42L9.7,42z M12.8,43
		l-0.6,1.7l2.6,0.9l-0.2,0.7l-6.2-2.1l0.8-2.3c0.4-1.1,1.4-1.7,2.5-1.3C12.7,40.8,13.1,41.9,12.8,43L12.8,43z"/>
	<path fill="#004B96" d="M12.2,36l-0.8,1.6l2.2,1l0.8-1.6c0.3-0.7,0.2-1.4-0.5-1.7C13.1,35,12.5,35.3,12.2,36L12.2,36z M18.1,37.4
		l-3.3,0.1l-0.7,1.4l2.6,1.3l-0.3,0.6l-5.9-2.9l1.1-2.3c0.5-1,1.5-1.4,2.5-1c0.9,0.4,1.2,1.2,1,2.1l3.4-0.1L18.1,37.4L18.1,37.4z"/>
	<path fill="#004B96" d="M16.3,29.8c-0.4,0.1-0.8,0.3-1,0.7c-0.2,0.4-0.3,0.8-0.2,1.2c0.1,0.6,0.5,0.9,1.6,1.6
		c1.1,0.8,1.5,1,2.1,0.8c0.4-0.1,0.8-0.3,1-0.7c0.2-0.4,0.3-0.8,0.2-1.2c-0.1-0.6-0.5-0.9-1.6-1.6C17.3,29.9,16.9,29.7,16.3,29.8
		L16.3,29.8z M20.7,32c0.1,0.6,0,1.2-0.4,1.8c-0.4,0.5-0.9,0.9-1.5,1c-0.9,0.2-1.4-0.2-2.6-0.9c-1.2-0.8-1.7-1.1-1.9-2
		c-0.1-0.6,0-1.2,0.4-1.8c0.4-0.5,0.9-0.9,1.5-1c0.9-0.2,1.4,0.2,2.6,0.9C20,30.8,20.5,31.1,20.7,32L20.7,32z"/>
	<path fill="#004B96" d="M22.9,30.3c-0.4,0.5-0.8,0.7-1.4,0.8l-0.1-0.7c0.3,0,0.6-0.1,1-0.5c0.5-0.7,0.4-1.4-0.3-2l-3.5-2.8l0.4-0.5
		l3.5,2.9C23.5,28.2,23.6,29.4,22.9,30.3L22.9,30.3z"/>
	<polygon fill="#004B96" points="25.3,27.4 20.7,22.7 23.6,19.8 24,20.3 21.6,22.6 23.2,24.3 25.3,22.3 25.7,22.7 23.7,24.7 
		25.3,26.4 27.7,24.1 28.2,24.5 25.3,27.4 	"/>
	<polygon fill="#004B96" points="27.1,17.7 30.8,22.4 30.2,22.8 26.6,18.2 25.1,19.3 24.7,18.9 28.2,16.1 28.6,16.6 27.1,17.7 	"/>
	<polygon fill="#004B96" points="33,13.8 34.1,15.9 36.7,14.5 37,15.1 34.5,16.5 35.9,19 35.2,19.3 32.1,13.6 35.6,11.6 35.9,12.2 
		33,13.8 	"/>
	<polygon fill="#004B96" points="40,16.9 37.3,10.9 37.9,10.6 40.6,16.6 40,16.9 	"/>
	<polygon fill="#004B96" points="46.3,14.5 41.3,10.6 43,15.6 42.3,15.8 40.3,9.6 40.9,9.4 45.8,13.2 44.2,8.3 44.9,8.1 46.9,14.3 
		46.3,14.5 	"/>
	<path fill="#004B96" d="M49.5,8l-0.6,3.6l2.4-0.5L49.5,8L49.5,8z M52.4,13.1l-0.8-1.4l-2.8,0.5l-0.2,1.6L47.9,14L49,7.1L49.6,7
		l3.6,6L52.4,13.1L52.4,13.1z"/>
	<polygon fill="#004B96" points="58.3,12.7 54.6,7.6 54.9,12.9 54.2,12.9 53.8,6.3 54.5,6.3 58.2,11.3 57.9,6.1 58.6,6.1 59,12.6 
		58.3,12.7 	"/>
	<path fill="#004B96" d="M62.9,12.9c-0.6,0-1.2-0.3-1.6-0.8c-0.6-0.7-0.5-1.3-0.4-2.7c0.1-1.4,0.2-2,0.8-2.6
		c0.5-0.4,1.1-0.6,1.7-0.6c1.2,0.1,2,0.9,2.1,2.1l-0.7-0.1c-0.1-0.8-0.6-1.4-1.5-1.4c-0.4,0-0.9,0.1-1.2,0.4
		c-0.4,0.4-0.5,0.8-0.6,2.2c-0.1,1.4-0.1,1.8,0.3,2.3c0.3,0.3,0.7,0.5,1.1,0.5c0.8,0.1,1.4-0.4,1.7-1.2l0.7,0.1
		C65,12.3,64,13,62.9,12.9L62.9,12.9z"/>
	<path fill="#004B96" d="M70.1,6.6l-0.6-0.1l1.1-1.2l0.8,0.2L70.1,6.6L70.1,6.6z M66.6,13.2l1.3-6.4l4,0.8l-0.1,0.6l-3.3-0.7L68,9.8
		l2.8,0.6L70.7,11l-2.8-0.6l-0.5,2.3l3.3,0.7L70.6,14L66.6,13.2L66.6,13.2z"/>
	<path fill="#004B96" d="M78.5,10.4L77,9.8L76,12.2l1.6,0.6c0.8,0.3,1.5,0.1,1.8-0.7C79.7,11.3,79.3,10.7,78.5,10.4L78.5,10.4z
		 M77.4,13.4l-1.6-0.6l-1,2.5l-0.7-0.3l2.3-6.1l2.3,0.9c1.1,0.4,1.6,1.4,1.2,2.5C79.6,13.4,78.6,13.9,77.4,13.4L77.4,13.4z"/>
	<path fill="#004B96" d="M83.3,13l-2.7,2.5l2.2,1.1L83.3,13L83.3,13z M82.5,18.8l0.2-1.6l-2.5-1.3L79,17l-0.7-0.3l5.2-4.7l0.5,0.3
		l-0.9,6.9L82.5,18.8L82.5,18.8z"/>
	<path fill="#004B96" d="M89.4,16.2l-1.4-1l-1.4,2l1.4,1c0.6,0.4,1.3,0.4,1.8-0.2C90.2,17.3,90,16.6,89.4,16.2L89.4,16.2z
		 M87.1,21.8l0.4-3.2l-1.3-0.9l-1.6,2.4L84,19.7l3.7-5.4l2.1,1.4c0.9,0.6,1.2,1.7,0.6,2.6c-0.5,0.8-1.4,1-2.2,0.6l-0.4,3.3
		L87.1,21.8L87.1,21.8z"/>
	<polygon fill="#004B96" points="90.6,24.7 95.2,20 95.7,20.5 91.6,24.7 94,27.1 93.5,27.5 90.6,24.7 	"/>
	<polygon fill="#004B96" points="97,24 98.1,22.9 98.7,23.5 98.1,24.1 97,24 	"/>
	<path fill="#004B96" d="M100.1,26.7l-3.5,1.2l1.5,1.9L100.1,26.7L100.1,26.7z M96.9,31.7l0.8-1.3L96,28.1l-1.5,0.5L94,28.1l6.6-2.2
		l0.4,0.5l-3.6,6L96.9,31.7L96.9,31.7z"/>
	<polygon fill="#004B96" points="100.1,36.7 102.8,31 98.3,33.7 98,33.1 103.6,29.7 103.9,30.3 101.2,36 105.7,33.3 106.1,33.9 
		100.5,37.3 100.1,36.7 	"/>
	<path fill="#004B96" d="M107.7,38.8l-0.7-1.6l-2.2,1l0.7,1.6c0.3,0.7,0.9,1,1.6,0.7C107.9,40.1,108,39.5,107.7,38.8L107.7,38.8z
		 M102.8,42.4l2.1-2.5l-0.6-1.4l-2.7,1.2l-0.3-0.6l6-2.6l1,2.3c0.5,1,0.1,2.1-0.9,2.5c-0.9,0.4-1.7,0.1-2.2-0.6l-2.1,2.6L102.8,42.4
		L102.8,42.4z"/>
	<path fill="#004B96" d="M75.3,97.2l-0.1-0.3c15.1-6.4,24.9-21.1,24.9-37.6c0-22.5-18.3-40.8-40.8-40.8c-22.5,0-40.8,18.3-40.8,40.8
		c0,9.4,3.3,18.6,9.2,25.8l-0.3,0.2c-6-7.3-9.3-16.6-9.3-26.1c0-22.7,18.4-41.1,41.1-41.1c22.7,0,41.1,18.4,41.1,41.1
		C100.4,75.8,90.6,90.7,75.3,97.2"/>
	<path fill="#004B96" d="M11.6,59.6l0-1.7l-2.6,0l0,1.7c0,0.8,0.4,1.4,1.3,1.4C11.2,61,11.6,60.5,11.6,59.6L11.6,59.6z M8.4,59.7
		l0-1.7l-2.7,0l0-0.7l6.6,0l0,2.4c0,1.2-0.8,2-1.9,2C9.2,61.7,8.4,60.9,8.4,59.7L8.4,59.7z"/>
	<path fill="#004B96" d="M12,65.4l-0.2-1.7l-2.4,0.3l0.2,1.7c0.1,0.8,0.5,1.3,1.3,1.2C11.8,66.7,12.1,66.1,12,65.4L12,65.4z
		 M6.3,67.4L9,65.5L8.8,64l-2.9,0.3l-0.1-0.7l6.5-0.8l0.3,2.5c0.1,1.1-0.5,2-1.6,2.1c-1,0.1-1.6-0.4-1.9-1.2l-2.8,1.9L6.3,67.4
		L6.3,67.4z"/>
	<path fill="#004B96" d="M12.9,72c0.2-0.3,0.3-0.8,0.2-1.2c-0.1-0.4-0.4-0.8-0.7-1c-0.5-0.3-1-0.2-2.3,0.1c-1.3,0.3-1.8,0.5-2.1,1
		c-0.2,0.3-0.3,0.8-0.2,1.2c0.1,0.4,0.4,0.8,0.7,1c0.5,0.3,1,0.2,2.3-0.1C12.2,72.7,12.6,72.5,12.9,72L12.9,72z M8.3,73.7
		c-0.5-0.3-0.9-0.8-1.1-1.5c-0.2-0.6-0.1-1.3,0.3-1.8c0.5-0.7,1.1-0.9,2.4-1.2c1.4-0.3,2-0.5,2.7,0c0.5,0.3,0.9,0.8,1.1,1.5
		c0.2,0.6,0.1,1.3-0.3,1.8c-0.5,0.7-1.1,0.9-2.4,1.2C9.7,74,9,74.2,8.3,73.7L8.3,73.7z"/>
	<path fill="#004B96" d="M8.6,76.9c-0.2-0.6-0.2-1.1,0-1.6l0.6,0.3c-0.1,0.3-0.2,0.6-0.1,1.1c0.3,0.8,1,1.1,1.9,0.8l4.2-1.5l0.2,0.7
		l-4.3,1.6C10,78.6,9,78,8.6,76.9L8.6,76.9z"/>
	<polygon fill="#004B96" points="10.2,81 16.2,78.1 17.9,81.8 17.4,82.1 15.9,79 13.8,80 15.1,82.6 14.5,82.9 13.2,80.3 11.1,81.3 
		12.6,84.4 12,84.7 10.2,81 	"/>
	<path fill="#004B96" d="M14.1,88.2c-0.3-0.5-0.5-1.2-0.3-1.8c0.2-0.9,0.7-1.2,1.9-1.9c1.2-0.7,1.7-1.1,2.6-0.9
		c0.6,0.1,1.1,0.5,1.5,1c0.6,1,0.5,2.1-0.4,3L18.9,87c0.6-0.6,0.7-1.3,0.3-2c-0.2-0.4-0.6-0.6-1-0.7c-0.6-0.1-1,0.1-2.1,0.8
		c-1.2,0.7-1.5,1-1.6,1.6c-0.1,0.4,0,0.8,0.2,1.2c0.4,0.7,1.2,0.9,2,0.6l0.4,0.6C15.8,89.5,14.7,89.2,14.1,88.2L14.1,88.2z"/>
	<polygon fill="#004B96" points="22.3,89.4 17.7,93.1 17.3,92.6 21.9,88.9 20.7,87.4 21.2,87 24,90.5 23.5,90.9 22.3,89.4 	"/>
	<polygon fill="#004B96" points="26.4,93.8 24.8,95.6 26.9,97.6 26.5,98 24.4,96.1 22.4,98.2 21.9,97.8 26.3,92.9 29.4,95.7 
		28.9,96.1 26.4,93.8 	"/>
	<path fill="#004B96" d="M28.1,103c-1.1-0.8-1.3-2.1-0.6-3.1l2.6-3.6l0.6,0.4l-2.5,3.5c-0.6,0.8-0.4,1.7,0.3,2.3
		c0.8,0.6,1.7,0.4,2.3-0.4l2.5-3.5l0.6,0.4l-2.6,3.6C30.5,103.6,29.2,103.8,28.1,103L28.1,103z"/>
	<polygon fill="#004B96" points="35.8,107.5 35.2,101.3 32.8,105.9 32.1,105.6 35.2,99.8 35.8,100.1 36.4,106.4 38.9,101.7 
		39.5,102 36.4,107.8 35.8,107.5 	"/>
	<path fill="#004B96" d="M43.9,104.9c-0.2-0.4-0.6-0.7-1-0.9l-1.3-0.5l-1.8,5L41,109c0.5,0.2,0.9,0.2,1.4,0c0.6-0.3,0.9-1.2,1.2-2
		C43.8,106.3,44.1,105.5,43.9,104.9L43.9,104.9z M42.6,109.6c-0.5,0.2-1.1,0.2-1.8,0l-2.1-0.8l2.3-6.2l2.1,0.8
		c0.6,0.2,1.1,0.6,1.3,1.1c0.4,0.9,0,1.8-0.3,2.7C43.9,108.1,43.5,109.2,42.6,109.6L42.6,109.6z"/>
	<polygon fill="#004B96" points="45.2,111 46.7,104.7 50.7,105.6 50.5,106.2 47.3,105.4 46.7,107.7 49.5,108.3 49.4,108.9 
		46.6,108.3 46,110.6 49.3,111.4 49.2,112 45.2,111 	"/>
	<path fill="#004B96" d="M55.2,107.3c-0.3-0.4-0.7-0.6-1.2-0.6l-1.4-0.2l-0.6,5.3l1.4,0.2c0.5,0.1,1,0,1.3-0.3
		c0.5-0.4,0.6-1.4,0.7-2.2C55.5,108.6,55.6,107.8,55.2,107.3L55.2,107.3z M55.2,112.2c-0.4,0.3-1,0.5-1.7,0.4l-2.2-0.3l0.7-6.5
		l2.2,0.3c0.7,0.1,1.2,0.4,1.6,0.8c0.6,0.8,0.5,1.8,0.4,2.7C56,110.4,55.9,111.6,55.2,112.2L55.2,112.2z"/>
	<path fill="#004B96" d="M62.9,109.7l-1.8,0.1l0.2,2.4l1.8-0.1c0.8-0.1,1.3-0.6,1.2-1.3C64.2,110.1,63.7,109.7,62.9,109.7
		L62.9,109.7z M62.6,106.9l-1.7,0.1l0.1,2.3l1.7-0.1c0.7,0,1.3-0.4,1.2-1.2C64,107.1,63.4,106.8,62.6,106.9L62.6,106.9z M63.2,112.8
		l-2.5,0.2l-0.4-6.6l2.5-0.2c1.1-0.1,2,0.5,2,1.6c0,0.7-0.3,1.3-0.9,1.5c0.6,0.2,1.1,0.7,1.2,1.5C65.1,112,64.3,112.7,63.2,112.8
		L63.2,112.8z"/>
	<polygon fill="#004B96" points="68.6,109.4 69.1,112 68.4,112.1 67.9,109.5 65.3,106 66,105.9 68.1,108.7 69.1,105.3 69.8,105.2 
		68.6,109.4 	"/>
	<polygon fill="#004B96" points="74.9,104.4 76.8,110 76.1,110.2 74.2,104.6 72.4,105.2 72.2,104.6 76.5,103.1 76.7,103.7 
		74.9,104.4 	"/>
	<polygon fill="#004B96" points="83.7,107 82.4,104.3 79.6,105.7 80.9,108.4 80.3,108.7 77.5,102.8 78.1,102.5 79.4,105.1 
		82.2,103.8 80.9,101.1 81.5,100.8 84.4,106.7 83.7,107 	"/>
	<polygon fill="#004B96" points="86.5,105.5 83,100 86.5,97.8 86.8,98.3 83.9,100.1 85.2,102.1 87.6,100.5 88,101.1 85.5,102.6 
		86.8,104.6 89.6,102.8 90,103.3 86.5,105.5 	"/>
	<path fill="#004B96" d="M91.4,95.1l1.4,3.4l1.8-1.6L91.4,95.1L91.4,95.1z M96.5,97.9l-1.4-0.8L93,99.1l0.6,1.5L93,101l-2.6-6.5
		l0.4-0.4l6.2,3.3L96.5,97.9L96.5,97.9z"/>
	<polygon fill="#004B96" points="101,93.1 94.7,92.2 98.7,95.7 98.2,96.2 93.3,91.9 93.7,91.4 100,92.2 96,88.8 96.5,88.3 
		101.4,92.6 101,93.1 	"/>
	<path fill="#004B96" d="M99.3,85.2l-1,1.5l2,1.3l1-1.5c0.4-0.6,0.4-1.3-0.3-1.8C100.4,84.3,99.7,84.6,99.3,85.2L99.3,85.2z
		 M105,87.4l-3.3-0.4l-0.9,1.3l2.4,1.6l-0.4,0.6l-5.5-3.6l1.4-2.1c0.6-1,1.6-1.2,2.6-0.6c0.8,0.5,1,1.4,0.7,2.2l3.3,0.3L105,87.4
		L105,87.4z"/>
	<path fill="#7188BF" d="M59.3,91.8c-17.9,0-32.5-14.5-32.5-32.5s14.5-32.5,32.5-32.5c17.9,0,32.5,14.5,32.5,32.5
		S77.2,91.8,59.3,91.8 M59.3,29.3c-16.6,0-30,13.4-30,30s13.4,30,30,30c16.6,0,30-13.4,30-30S75.9,29.3,59.3,29.3"/>
	<path fill="#3261A5" d="M59.3,89.3c-16.6,0-30-13.4-30-30s13.4-30,30-30c16.6,0,30,13.4,30,30S75.9,89.3,59.3,89.3 M59.3,31.4
		c-15.4,0-27.9,12.5-27.9,27.9c0,15.4,12.5,27.9,27.9,27.9c15.4,0,27.9-12.5,27.9-27.9C87.2,43.9,74.7,31.4,59.3,31.4"/>
	<path fill="#0F539C" d="M59.3,87.2c-15.4,0-27.9-12.5-27.9-27.9c0-15.4,12.5-27.9,27.9-27.9c15.4,0,27.9,12.5,27.9,27.9
		C87.2,74.7,74.7,87.2,59.3,87.2"/>
	<path fill="#FFFFFF" d="M39.5,60.9h4l-2-5.5h0L39.5,60.9L39.5,60.9z M43.7,66.7l0.7-0.1c0.8-0.1,0.9-0.3,0.7-1
		c-0.2-0.5-0.8-2.3-1.4-3.9h-4.5C38.9,62.3,38.4,64,38,65c-0.4,1.3-0.2,1.6,0.8,1.7l0.7,0.1v0.5h-4.8v-0.5c1.5-0.2,1.6-0.3,2.4-2.3
		l4.6-11.9l0.5-0.2l1.6,4.2c1,2.8,2,5.7,2.9,8c0.7,1.9,1,2,2.4,2.1v0.5h-5.4V66.7L43.7,66.7z"/>
	<path fill="#FFFFFF" d="M63.9,67.4h-0.6l-9.9-12h0v5.8c0,2.4,0.1,3.6,0.2,4.3c0.1,0.8,0.7,1.1,2.2,1.2v0.5h-5.5v-0.5
		c1.3,0,1.8-0.4,2-1.2c0.1-0.7,0.2-1.9,0.2-4.3v-4.9c0-1.6,0-2-0.4-2.5c-0.4-0.5-1.1-0.7-2-0.8v-0.5h3.3l9.6,11.5h0v-5.4
		c0-2.4-0.1-3.6-0.2-4.3c-0.1-0.8-0.7-1.1-2.2-1.2v-0.5H66v0.5c-1.3,0-1.8,0.4-2,1.2c-0.1,0.7-0.2,1.9-0.2,4.3V67.4L63.9,67.4z"/>
	<path fill="#FFFFFF" d="M71.2,57.8H73c1.2,0,2.2-0.1,3-0.8c1.3-1,1.7-2.5,1.7-4c0-3.1-2.3-4.4-4.5-4.4c-1,0-1.4,0.1-1.7,0.2
		c-0.2,0.1-0.3,0.2-0.3,0.8V57.8L71.2,57.8z M71.2,62.9c0,3.3,0.2,3.5,2.7,3.7v0.7h-8v-0.7c2.5-0.2,2.8-0.4,2.8-3.7V52.1
		c0-3.3-0.2-3.5-2.6-3.7v-0.7h7.6c1.9,0,3.6,0.3,4.7,1c1.2,0.7,2,2.1,2,3.8c0,2.5-1.5,4.3-4,5.2c0.5,0.9,1.8,3,2.7,4.3
		c1.1,1.6,1.7,2.4,2.5,3.3c0.6,0.7,1.2,1.2,2.2,1.5l-0.1,0.6h-0.4c-3.4-0.1-4.5-1.1-5.6-2.8c-0.9-1.3-2.2-3.6-3-5
		c-0.5-0.8-1-1.1-1.9-1.1h-1.6V62.9L71.2,62.9z"/>
	<path fill="#004B96" d="M59.3,118.6C26.6,118.6,0,92,0,59.3C0,26.6,26.6,0,59.3,0c12.2,0,23.9,3.7,33.9,10.6
		c9.7,6.8,17.2,16.2,21.4,27.3l-0.7,0.3C105.3,15.8,83.3,0.7,59.3,0.7C27,0.7,0.7,27,0.7,59.3c0,32.3,26.3,58.6,58.6,58.6
		c20.6,0,39.9-11,50.4-28.8l0.6,0.4C99.7,107.5,80.2,118.6,59.3,118.6L59.3,118.6z"/>
</g>
</svg>
