<?xml version="1.0" encoding="utf-8"?>
<!-- Generator: Adobe Illustrator 18.1.1, SVG Export Plug-In . SVG Version: 6.00 Build 0)  -->
<svg version="1.1" id="Calque_1" xmlns="http://www.w3.org/2000/svg" xmlns:xlink="http://www.w3.org/1999/xlink" x="0px" y="0px"
	 viewBox="0 0 595.3 595.3" enable-background="new 0 0 595.3 595.3" xml:space="preserve">
<g>
	<path fill="#2D3E56" d="M535.8,595.3H59.5C26.8,595.3,0,568.5,0,535.8V59.5C0,26.8,26.8,0,59.5,0h476.2c32.7,0,59.5,26.8,59.5,59.5
		v476.2C595.3,568.5,568.5,595.3,535.8,595.3z"/>
	<g>
		<path fill="#FFFFFF" d="M448.2,86.3l-29.8,29.8c65.5,65.5,65.5,173.8,0,239.3l29.8,29.8C531,302.4,531,169.1,448.2,86.3z"/>
		<path fill="#FFFFFF" d="M386.9,145.2L357.2,175c33.9,33.9,33.9,86.9,0,120.8l29.8,29.8C437.5,276.8,437.5,196.4,386.9,145.2z"/>
		<path fill="#FFFFFF" d="M177.4,116.1l-29.8-29.8c-82.7,82.7-82.7,216.1,0,298.2l29.8-29.8C111.3,289.3,111.3,181.6,177.4,116.1z"
			/>
		<path fill="#FFFFFF" d="M238.7,175l-29.8-29.8c-48.8,48.8-48.8,129.2,0,179.8l29.8-29.8C204.8,261.9,204.8,208.9,238.7,175z"/>
		<path fill="#FFFFFF" d="M319.1,450.6V270.9c12.5-6.5,21.4-21.4,21.4-35.7c0-23.2-19-42.3-42.3-42.3s-42.3,19-42.3,42.3
			c0,14.9,8.3,29.8,21.4,35.7v179.8c-25.6,8.3-42.3,31.5-42.3,59.5h126.8C361.3,482.2,344.7,459,319.1,450.6z"/>
	</g>
</g>
</svg>
