<?xml version="1.0" encoding="utf-8"?>
<!-- Generator: Adobe Illustrator 18.1.1, SVG Export Plug-In . SVG Version: 6.00 Build 0)  -->
<svg version="1.1" id="Calque_1" xmlns="http://www.w3.org/2000/svg" xmlns:xlink="http://www.w3.org/1999/xlink" x="0px" y="0px"
	 viewBox="247.6 370.9 100 100" enable-background="new 247.6 370.9 100 100" xml:space="preserve">
<path fill="#FC4D00" d="M337.6,470.9h-80c-5.5,0-10-4.5-10-10v-80c0-5.5,4.5-10,10-10h80c5.5,0,10,4.5,10,10v80
	C347.6,466.4,343.1,470.9,337.6,470.9z"/>
<g>
	<path fill="#FFFFFF" d="M322.9,385.4l-5,5c11,11,11,29.2,0,40.2l5,5C336.8,421.7,336.8,399.3,322.9,385.4z"/>
	<path fill="#FFFFFF" d="M312.6,395.3l-5,5c5.7,5.7,5.7,14.6,0,20.3l5,5C321.1,417.4,321.1,403.9,312.6,395.3z"/>
	<path fill="#FFFFFF" d="M277.4,390.4l-5-5c-13.9,13.9-13.9,36.3,0,50.1l5-5C266.3,419.5,266.3,401.4,277.4,390.4z"/>
	<path fill="#FFFFFF" d="M287.7,400.3l-5-5c-8.2,8.2-8.2,21.7,0,30.2l5-5C282,414.9,282,406,287.7,400.3z"/>
	<path fill="#FFFFFF" d="M301.2,446.6v-30.2c2.1-1.1,3.6-3.6,3.6-6c0-3.9-3.2-7.1-7.1-7.1s-7.1,3.2-7.1,7.1c0,2.5,1.4,5,3.6,6v30.2
		c-4.3,1.4-7.1,5.3-7.1,10h21.3C308.3,451.9,305.5,448,301.2,446.6z"/>
</g>
</svg>
